<svg width="35" height="35" viewBox="0 0 35 35" fill="none" xmlns="http://www.w3.org/2000/svg">
<g clip-path="url(#clip0_9825_204)">
<path d="M8.75 7.65625C8.75 3.42754 12.6641 0 17.5 0C22.3359 0 26.25 3.42754 26.25 7.65625V10.9375H31.25C33.3203 10.9375 35 12.4072 35 14.2188V28.4375C35 32.0605 31.6406 35 27.5 35H7.5C3.35781 35 0 32.0605 0 28.4375V14.2188C0 12.4072 1.67891 10.9375 3.75 10.9375H8.75V7.65625ZM12.5 10.9375H22.5V7.65625C22.5 5.23975 20.2578 3.28125 17.5 3.28125C14.7422 3.28125 12.5 5.23975 12.5 7.65625V10.9375ZM10.625 17.5C11.6641 17.5 12.5 16.7686 12.5 15.8594C12.5 14.9502 11.6641 14.2188 10.625 14.2188C9.58594 14.2188 8.75 14.9502 8.75 15.8594C8.75 16.7686 9.58594 17.5 10.625 17.5ZM24.375 14.2188C23.3359 14.2188 22.5 14.9502 22.5 15.8594C22.5 16.7686 23.3359 17.5 24.375 17.5C25.4141 17.5 26.25 16.7686 26.25 15.8594C26.25 14.9502 25.4141 14.2188 24.375 14.2188Z" fill="black"/>
</g>
<defs>
<clipPath id="clip0_9825_204">
<rect width="35" height="35" fill="white"/>
</clipPath>
</defs>
</svg>
