<svg width="212" height="58" viewBox="0 0 212 58" fill="none" xmlns="http://www.w3.org/2000/svg">
<path d="M147.42 58H0V3H147.42V58Z" fill="#ED1B24"/>
<path d="M127.313 10.8148H135.564V43.0476H142.558V51.1797H127.313V10.8148Z" fill="white"/>
<path d="M143.285 12.934C143.285 14.3632 141.88 15.5215 140.146 15.5215C138.413 15.5215 137.008 14.3632 137.008 12.934C137.008 11.5048 138.413 10.3465 140.146 10.3465C141.88 10.3465 143.285 11.5048 143.285 12.934Z" stroke="white" stroke-width="2.22267"/>
<path d="M139.345 12.7701H140.281C140.48 12.7701 140.635 12.7529 140.748 12.7189C140.86 12.6852 140.946 12.6311 141.004 12.5563C141.063 12.4818 141.092 12.4007 141.092 12.3132C141.092 12.1849 141.036 12.0796 140.922 11.9968C140.809 11.9143 140.631 11.8726 140.387 11.8726H139.345V12.7701ZM138.908 14.2871V11.5725H140.368C140.662 11.5725 140.885 11.597 141.038 11.6458C141.19 11.6946 141.312 11.7806 141.403 11.9042C141.495 12.0276 141.541 12.1642 141.541 12.3138C141.541 12.5063 141.465 12.669 141.314 12.8011C141.163 12.9333 140.929 13.0173 140.613 13.0531C140.729 13.0986 140.816 13.1436 140.876 13.1882C141.003 13.2843 141.124 13.4044 141.237 13.5487L141.807 14.2871H141.262L140.827 13.7229C140.699 13.5599 140.594 13.4354 140.512 13.3491C140.43 13.2627 140.356 13.2021 140.291 13.1675C140.226 13.1326 140.16 13.1087 140.093 13.0951C140.043 13.0862 139.962 13.0821 139.85 13.0821H139.345V14.2871H138.908Z" fill="white"/>
<path d="M70.44 30.0376C76.3586 29.7418 75.8206 23.6797 75.8206 23.6797C74.9238 17.7655 70.44 18.0612 70.44 18.0612V30.0376ZM51.4287 39.3525L48.9178 27.0804L46.7656 39.3525H51.4287ZM6.05273 51.0332V10.8162H17.1725L21.1183 27.6719L25.6021 10.8162H36.3632V47.0411L43.3579 10.8162H54.2984L61.1137 47.0411V10.9641H75.6412C75.6412 10.9641 80.6631 11.7033 83.174 17.4697L82.0979 10.8162H90.8861L95.0112 31.664L99.3156 10.9641H124.066V18.5047H116.713V26.7847H123.707V35.2125H116.892V42.9011H124.066V51.0332H108.104V12.2948L99.8537 51.0332H89.9893L84.7882 25.3061C84.7882 25.3061 83.8914 32.4033 79.0489 35.6561L85.3262 51.0332H76.7173L70.6194 37.5782V51.0332H53.2222L52.3255 47.1889H45.6895L44.2547 51.0332H27.7543V36.2475L23.4499 51.0332H18.9661L15.0203 36.3954V50.8853L6.05273 51.0332Z" fill="white"/>
</svg>
