<svg width="148" height="76" viewBox="0 0 148 76" fill="none" xmlns="http://www.w3.org/2000/svg">
<path d="M147.42 75.3672H0V0.171875H147.42V75.3672Z" fill="#ED1B24"/>
<path d="M127.312 10.8567H135.563V54.9248H142.557V66.043H127.312V10.8567Z" fill="white"/>
<path d="M143.285 13.7534C143.285 15.7074 141.88 17.291 140.146 17.291C138.413 17.291 137.008 15.7074 137.008 13.7534C137.008 11.7995 138.413 10.2158 140.146 10.2158C141.88 10.2158 143.285 11.7995 143.285 13.7534Z" stroke="white" stroke-width="2.22267"/>
<path d="M139.345 13.5295H140.281C140.48 13.5295 140.635 13.506 140.748 13.4595C140.86 13.4134 140.946 13.3394 141.004 13.2372C141.063 13.1353 141.092 13.0245 141.092 12.9048C141.092 12.7294 141.036 12.5854 140.922 12.4722C140.809 12.3594 140.631 12.3024 140.387 12.3024H139.345V13.5295ZM138.908 15.6035V11.8921H140.368C140.662 11.8921 140.885 11.9256 141.038 11.9923C141.19 12.059 141.312 12.1767 141.403 12.3457C141.495 12.5143 141.541 12.7011 141.541 12.9056C141.541 13.1688 141.465 13.3912 141.314 13.5719C141.163 13.7526 140.929 13.8675 140.613 13.9164C140.729 13.9786 140.816 14.0401 140.876 14.1011C141.003 14.2325 141.124 14.3967 141.237 14.594L141.807 15.6035H141.262L140.827 14.8321C140.699 14.6093 140.594 14.4391 140.512 14.3211C140.43 14.203 140.356 14.1201 140.291 14.0728C140.226 14.0251 140.16 13.9924 140.093 13.9738C140.043 13.9617 139.962 13.956 139.85 13.956H139.345V15.6035H138.908Z" fill="white"/>
<path d="M70.44 37.1368C76.3586 36.7325 75.8206 28.4445 75.8206 28.4445C74.9238 20.3585 70.44 20.7628 70.44 20.7628V37.1368ZM51.4287 49.8721L48.9178 33.0939L46.7656 49.8721H51.4287ZM6.05273 65.8418V10.8576H17.1725L21.1183 33.9024L25.6021 10.8576H36.3632V60.3838L43.3579 10.8576H54.2984L61.1137 60.3838V11.0597H75.6412C75.6412 11.0597 80.6631 12.0705 83.174 19.9543L82.0979 10.8576H90.8861L95.0112 39.3604L99.3156 11.0597H124.066V21.3693H116.713V32.6896H123.707V44.212H116.892V54.7237H124.066V65.8418H108.104V12.8791L99.8537 65.8418H89.9893L84.7882 30.6681C84.7882 30.6681 83.8914 40.3712 79.0489 44.8184L85.3262 65.8418H76.7173L70.6194 47.4463V65.8418H53.2222L52.3255 60.586H45.6895L44.2547 65.8418H27.7543V45.627L23.4499 65.8418H18.9661L15.0203 45.8292V65.6396L6.05273 65.8418Z" fill="white"/>
</svg>
