<svg width="162" height="30" viewBox="0 0 162 30" fill="none" xmlns="http://www.w3.org/2000/svg">
<path d="M26.6048 10.3438L19.1664 9.26271L15.8412 2.5215C15.7503 2.33692 15.6009 2.18751 15.4164 2.09669C14.9535 1.86817 14.391 2.0586 14.1595 2.5215L10.8343 9.26271L3.39585 10.3438C3.19077 10.3731 3.00327 10.4697 2.85972 10.6162C2.68617 10.7946 2.59054 11.0346 2.59383 11.2834C2.59713 11.5323 2.69908 11.7697 2.8773 11.9434L8.25913 17.1904L6.98765 24.5996C6.95783 24.772 6.97691 24.9492 7.0427 25.1113C7.1085 25.2734 7.2184 25.4138 7.35992 25.5165C7.50145 25.6193 7.66894 25.6804 7.84341 25.6928C8.01788 25.7053 8.19235 25.6686 8.34702 25.5869L15.0003 22.0889L21.6537 25.5869C21.8353 25.6836 22.0462 25.7158 22.2484 25.6807C22.7582 25.5928 23.1009 25.1094 23.013 24.5996L21.7416 17.1904L27.1234 11.9434C27.2699 11.7998 27.3666 11.6123 27.3959 11.4072C27.475 10.8945 27.1175 10.4199 26.6048 10.3438Z" fill="#FFD803"/>
<path d="M59.6048 10.3438L52.1664 9.26271L48.8412 2.5215C48.7503 2.33692 48.6009 2.18751 48.4164 2.09669C47.9535 1.86817 47.391 2.0586 47.1595 2.5215L43.8343 9.26271L36.3959 10.3438C36.1908 10.3731 36.0033 10.4697 35.8597 10.6162C35.6862 10.7946 35.5905 11.0346 35.5938 11.2834C35.5971 11.5323 35.6991 11.7697 35.8773 11.9434L41.2591 17.1904L39.9876 24.5996C39.9578 24.772 39.9769 24.9492 40.0427 25.1113C40.1085 25.2734 40.2184 25.4138 40.3599 25.5165C40.5014 25.6193 40.6689 25.6804 40.8434 25.6928C41.0179 25.7053 41.1923 25.6686 41.347 25.5869L48.0003 22.0889L54.6537 25.5869C54.8353 25.6836 55.0462 25.7158 55.2484 25.6807C55.7582 25.5928 56.1009 25.1094 56.013 24.5996L54.7416 17.1904L60.1234 11.9434C60.2699 11.7998 60.3666 11.6123 60.3959 11.4072C60.475 10.8945 60.1175 10.4199 59.6048 10.3438Z" fill="#FFD803"/>
<path d="M92.6048 10.3438L85.1664 9.26271L81.8412 2.5215C81.7503 2.33692 81.6009 2.18751 81.4164 2.09669C80.9535 1.86817 80.391 2.0586 80.1595 2.5215L76.8343 9.26271L69.3959 10.3438C69.1908 10.3731 69.0033 10.4697 68.8597 10.6162C68.6862 10.7946 68.5905 11.0346 68.5938 11.2834C68.5971 11.5323 68.6991 11.7697 68.8773 11.9434L74.2591 17.1904L72.9876 24.5996C72.9578 24.772 72.9769 24.9492 73.0427 25.1113C73.1085 25.2734 73.2184 25.4138 73.3599 25.5165C73.5014 25.6193 73.6689 25.6804 73.8434 25.6928C74.0179 25.7053 74.1923 25.6686 74.347 25.5869L81.0003 22.0889L87.6537 25.5869C87.8353 25.6836 88.0462 25.7158 88.2484 25.6807C88.7582 25.5928 89.1009 25.1094 89.013 24.5996L87.7416 17.1904L93.1234 11.9434C93.2699 11.7998 93.3666 11.6123 93.3959 11.4072C93.475 10.8945 93.1175 10.4199 92.6048 10.3438Z" fill="#FFD803"/>
<path d="M125.605 10.3438L118.166 9.26271L114.841 2.5215C114.75 2.33692 114.601 2.18751 114.416 2.09669C113.953 1.86817 113.391 2.0586 113.16 2.5215L109.834 9.26271L102.396 10.3438C102.191 10.3731 102.003 10.4697 101.86 10.6162C101.686 10.7946 101.591 11.0346 101.594 11.2834C101.597 11.5323 101.699 11.7697 101.877 11.9434L107.259 17.1904L105.988 24.5996C105.958 24.772 105.977 24.9492 106.043 25.1113C106.109 25.2734 106.218 25.4138 106.36 25.5165C106.501 25.6193 106.669 25.6804 106.843 25.6928C107.018 25.7053 107.192 25.6686 107.347 25.5869L114 22.0889L120.654 25.5869C120.835 25.6836 121.046 25.7158 121.248 25.6807C121.758 25.5928 122.101 25.1094 122.013 24.5996L120.742 17.1904L126.123 11.9434C126.27 11.7998 126.367 11.6123 126.396 11.4072C126.475 10.8945 126.118 10.4199 125.605 10.3438Z" fill="#FFD803"/>
<path d="M158.605 10.3438L151.166 9.26271L147.841 2.5215C147.75 2.33692 147.601 2.18751 147.416 2.09669C146.953 1.86817 146.391 2.0586 146.16 2.5215L142.834 9.26271L135.396 10.3438C135.191 10.3731 135.003 10.4697 134.86 10.6162C134.686 10.7946 134.591 11.0346 134.594 11.2834C134.597 11.5323 134.699 11.7697 134.877 11.9434L140.259 17.1904L138.988 24.5996C138.958 24.772 138.977 24.9492 139.043 25.1113C139.109 25.2734 139.218 25.4138 139.36 25.5165C139.501 25.6193 139.669 25.6804 139.843 25.6928C140.018 25.7053 140.192 25.6686 140.347 25.5869L147 22.0889L153.654 25.5869C153.835 25.6836 154.046 25.7158 154.248 25.6807C154.758 25.5928 155.101 25.1094 155.013 24.5996L153.742 17.1904L159.123 11.9434C159.27 11.7998 159.367 11.6123 159.396 11.4072C159.475 10.8945 159.118 10.4199 158.605 10.3438Z" fill="#E5E5E5"/>
</svg>
